<?xml version="1.0" encoding="utf-8"?>
<!-- Generator: Adobe Illustrator 18.0.0, SVG Export Plug-In . SVG Version: 6.00 Build 0)  -->
<!DOCTYPE svg PUBLIC "-//W3C//DTD SVG 1.1//EN" "http://www.w3.org/Graphics/SVG/1.1/DTD/svg11.dtd">
<svg version="1.1" id="Capa_1" xmlns="http://www.w3.org/2000/svg" xmlns:xlink="http://www.w3.org/1999/xlink" x="0px" y="0px"
	 viewBox="0 0 512 512" enable-background="new 0 0 512 512" xml:space="preserve">
<g>
	<g>
		<path d="M473.1,453.7H38.9c-9.1,0-16.3,7.5-16.3,16.3c0,8.7,7.5,16.3,16.3,16.3h434.6c9.1,0,16.3-7.5,16.3-16.3
			C489.8,461.2,482.2,453.7,473.1,453.7z"/>
		<path d="M22.6,309.6L22.2,387c0,4.4,1.6,8.7,4.8,11.9s7.1,4.8,11.5,4.8l77-0.4c4.4,0,8.3-1.6,11.5-4.8l265.9-265.9
			c6.4-6.4,6.4-16.7,0-23.4l-76.2-77c-6.4-6.4-16.7-6.4-23.4,0l-53.2,53.6L27.4,298.1C24.6,301.2,22.6,305.2,22.6,309.6L22.6,309.6z
			 M305.2,67.1l53.6,53.6l-30.2,30.2l-53.6-53.6C275.1,97.2,305.2,67.1,305.2,67.1z M55.6,316.7l196.1-196.1l53.6,53.6L109.1,369.9
			l-54,0.4L55.6,316.7L55.6,316.7z"/>
	</g>
</g>
</svg>
